# xmcd
#
# Track frame offsets:
#	150
#	14080
#	31512
#	48832
#	62937
#	75797
#	90402
#	104142
#	122762
#	133197
#
# Disc length: 2009 seconds
#
# Revision: 7
# Processed by: cddbd v1.5.1PL2 Copyright (c) Steve Scherf et al.
# Submitted via: dBpowerAMP V4.0
#
DISCID=7a07d70a
DTITLE=George Strait - Carrying Your Love With Me
DYEAR=1997
DGENRE=Country
TTITLE0=Round About Way
TTITLE1=Carrying Your Love With Me
TTITLE2=One Night At A Time
TTITLE3=She'll Leave You With A Smile
TTITLE4=Won't You Come Home (And Talk To A Stranger)
TTITLE5=Today My World Slipped Away
TTITLE6=I've Got A Funny Feeling
TTITLE7=The Nerve
TTITLE8=That's Me (Every Chance I Get)
TTITLE9=A Real Good Place To Start
EXTD=
EXTT0=
EXTT1=
EXTT2=
EXTT3=
EXTT4=
EXTT5=
EXTT6=
EXTT7=
EXTT8=
EXTT9=
PLAYORDER=
